<?xml version="1.0" standalone="no"?>
<svg xmlns:xlink="http://www.w3.org/1999/xlink" id="wave" style="transform:rotate(180deg); transition: 0.3s" viewBox="0 0 1440 490" version="1.1" xmlns="http://www.w3.org/2000/svg"><defs><linearGradient id="sw-gradient-0" x1="0" x2="0" y1="1" y2="0"><stop stop-color="rgba(243, 106, 62, 1)" offset="0%"/><stop stop-color="rgba(255, 179, 11, 1)" offset="100%"/></linearGradient></defs><path style="transform:translate(0, 0px); opacity:1" fill="url(#sw-gradient-0)" d="M0,245L80,261.3C160,278,320,310,480,285.8C640,261,800,180,960,138.8C1120,98,1280,98,1440,130.7C1600,163,1760,229,1920,261.3C2080,294,2240,294,2400,310.3C2560,327,2720,359,2880,334.8C3040,310,3200,229,3360,212.3C3520,196,3680,245,3840,245C4000,245,4160,196,4320,220.5C4480,245,4640,343,4800,392C4960,441,5120,441,5280,416.5C5440,392,5600,343,5760,277.7C5920,212,6080,131,6240,81.7C6400,33,6560,16,6720,65.3C6880,114,7040,229,7200,245C7360,261,7520,180,7680,147C7840,114,8000,131,8160,171.5C8320,212,8480,278,8640,302.2C8800,327,8960,310,9120,318.5C9280,327,9440,359,9600,318.5C9760,278,9920,163,10080,130.7C10240,98,10400,147,10560,187.8C10720,229,10880,261,11040,236.8C11200,212,11360,131,11440,89.8L11520,49L11520,490L11440,490C11360,490,11200,490,11040,490C10880,490,10720,490,10560,490C10400,490,10240,490,10080,490C9920,490,9760,490,9600,490C9440,490,9280,490,9120,490C8960,490,8800,490,8640,490C8480,490,8320,490,8160,490C8000,490,7840,490,7680,490C7520,490,7360,490,7200,490C7040,490,6880,490,6720,490C6560,490,6400,490,6240,490C6080,490,5920,490,5760,490C5600,490,5440,490,5280,490C5120,490,4960,490,4800,490C4640,490,4480,490,4320,490C4160,490,4000,490,3840,490C3680,490,3520,490,3360,490C3200,490,3040,490,2880,490C2720,490,2560,490,2400,490C2240,490,2080,490,1920,490C1760,490,1600,490,1440,490C1280,490,1120,490,960,490C800,490,640,490,480,490C320,490,160,490,80,490L0,490Z"/></svg>